PathFileType	4	(X/Y/Z)	C:\Users\Basilio\Documents\Thesis Gigler\squatting_fais\c3dfiles\041\SLS_pre_front3\markers_experimental.trc
DataRate	CameraRate	NumFrames	NumMarkers	Units	OrigDataRate	OrigDataStartFrame	OrigNumFrames
200.000000	200.000000	4	62	mm	200.000000	1419	1622
Frame#	Time	FHD			LBHD			RBHD			C7			T10			CLAV			LSHO			LUUPA			LMUPA			LDUPA			LLEP			LMEP			LRAD			LUL			LRFIN			RSHO			RUPA1			RMUPA			RDUPA			RLEP			RMEP			RRAD			RUL			RUFIN			LASI			RASI			USACR			LSACR			RSACR			LTHI1			LTHI2			LTHI3			LTHI4			LLFC			LMFC			LTIB1			LTIB2			LTIB3			LTIB4			LLMAL			LMMAL			LHEE			LMT1			LMT2			LMT5			RTHI			RTHI2			RTHI3			RTHI4			RLFC			RMFC			RTIB1			RTIB2			RTIB3			RTIB4			RLMAL			RMMAL			RHEE			RMT1			RMT2			RMT5			*61			
		X1	Y1	Z1	X2	Y2	Z2	X3	Y3	Z3	X4	Y4	Z4	X5	Y5	Z5	X6	Y6	Z6	X7	Y7	Z7	X8	Y8	Z8	X9	Y9	Z9	X10	Y10	Z10	X11	Y11	Z11	X12	Y12	Z12	X13	Y13	Z13	X14	Y14	Z14	X15	Y15	Z15	X16	Y16	Z16	X17	Y17	Z17	X18	Y18	Z18	X19	Y19	Z19	X20	Y20	Z20	X21	Y21	Z21	X22	Y22	Z22	X23	Y23	Z23	X24	Y24	Z24	X25	Y25	Z25	X26	Y26	Z26	X27	Y27	Z27	X28	Y28	Z28	X29	Y29	Z29	X30	Y30	Z30	X31	Y31	Z31	X32	Y32	Z32	X33	Y33	Z33	X34	Y34	Z34	X35	Y35	Z35	X36	Y36	Z36	X37	Y37	Z37	X38	Y38	Z38	X39	Y39	Z39	X40	Y40	Z40	X41	Y41	Z41	X42	Y42	Z42	X43	Y43	Z43	X44	Y44	Z44	X45	Y45	Z45	X46	Y46	Z46	X47	Y47	Z47	X48	Y48	Z48	X49	Y49	Z49	X50	Y50	Z50	X51	Y51	Z51	X52	Y52	Z52	X53	Y53	Z53	X54	Y54	Z54	X55	Y55	Z55	X56	Y56	Z56	X57	Y57	Z57	X58	Y58	Z58	X59	Y59	Z59	X60	Y60	Z60	X61	Y61	Z61	X62	Y62	Z62	

1420	7.095	-188.9818572998047	1790.629272460938	-887.1138916015627	-361.3266906738282	1711.014282226563	-962.8928833007815	-338.2744445800782	1708.64990234375	-811.6077880859377	-383.2103881835938	1560.633422851563	-907.4733886718752	-390.4257202148439	1241.717407226563	-910.602478027344	-220.9903564453126	1508.056884765625	-913.354431152344	-312.5372924804688	1560.587768554688	-1082.590942382813	-346.4106750488282	1368.4677734375	-1171.285034179688	-308.2950744628907	1338.165771484375	-1168.029541015625	-353.3373718261719	1300.963745117188	-1186.923217773438	-356.5979614257813	1250.594360351563	-1191.482177734375	-351.0106201171876	1213.045043945313	-1111.479736328125	-170.9512329101563	1039.576904296875	-1201.8974609375	-235.8102264404297	1015.990051269531	-1230.661254882813	-131.2692565917969	986.2620849609377	-1243.7998046875	-291.7050781250001	1547.6806640625	-738.2687988281251	-364.0854797363282	1341.443481445313	-651.8964843750001	-315.9263916015626	1328.8046875	-643.5042724609376	-343.3247070312501	1277.047607421875	-632.1915893554689	-338.7267150878907	1232.13134765625	-625.2022705078126	-342.0502319335938	1205.597534179688	-710.5996704101564	-197.3191528320313	1004.02490234375	-636.8926391601564	-263.4243164062501	987.824401855469	-602.2818603515626	-161.7225341796875	939.4250488281252	-608.0266723632814	-219.0122222900391	1061.963745117188	-1029.199462890625	-217.3454742431641	1055.226318359375	-801.2841796875002	-395.1719970703126	1130.810668945313	-913.1067504882815	-410.879608154297	1104.945190429688	-939.4306640625002	-411.5632934570314	1105.203491210938	-885.2996826171877	-335.8425292968751	854.2474365234377	-1100.445190429688	-299.5609741210938	777.7795410156252	-1102.416748046875	-251.8737182617188	781.725769042969	-1094.948486328125	-325.9594421386719	723.4592895507814	-1093.725708007813	-307.1469421386719	544.5013427734376	-1089.864013671875	-296.0439758300782	518.6187133789064	-973.3679199218752	-290.8143920898438	348.2686462402344	-1047.048095703125	-342.0624084472657	313.2972106933594	-1110.819091796875	-304.7144165039063	304.4097595214844	-1086.3125	-314.0082397460938	225.3977355957032	-1058.359497070313	-380.8913879394532	138.4157867431641	-1101.5634765625	-342.0307617187501	138.5733032226563	-1020.902038574219	-448.3218383789064	120.0334930419922	-1061.8515625	-241.4967651367188	62.95043563842775	-1039.216674804688	-235.0963592529297	57.81789398193361	-1085.112915039063	-284.3703002929688	45.56828308105469	-1137.384033203125	-329.1966247558594	796.4370727539065	-725.3225097656251	-290.0596923828126	743.3488769531251	-720.7483520507814	-257.0783386230469	745.6107788085939	-724.5577392578126	-315.3471679687501	663.3306884765626	-733.9733276367189	-311.9974670410157	538.3242187500001	-730.1853027343751	-292.3999328613282	513.7803344726564	-845.8767700195315	-294.0011596679688	367.8586730957032	-731.4500732421876	-384.030731201172	301.7481384277344	-714.7457275390626	-337.8766784667969	293.9823913574219	-714.7334594726564	-320.3556213378907	242.4039459228516	-741.5450439453126	-391.1469116210939	135.9172821044922	-725.2318725585939	-359.0671081542969	144.4063873291016	-802.3372802734377	-451.6214904785157	115.8492126464844	-775.7067871093752	-245.3264465332032	55.94946670532228	-783.4219970703127	-242.0736083984376	56.60217285156251	-730.7364501953126	-288.9194641113282	49.87571334838869	-681.6166992187501	-4217.417968750001	853.271179199219	-3944.766113281251	
1421	7.100000000000001	-189.244125366211	1790.654418945313	-886.3873291015627	-361.3751220703126	1711.26123046875	-962.3504028320315	-338.5850830078126	1708.753540039063	-811.002624511719	-383.4767761230469	1560.605834960938	-906.999450683594	-390.5762329101564	1241.707275390625	-910.4153442382815	-221.0299224853516	1508.181518554688	-912.8365478515627	-312.5967102050782	1560.898559570313	-1081.9208984375	-345.1446228027344	1368.843017578125	-1171.385620117188	-307.4658813476563	1338.851928710938	-1167.9287109375	-352.4826660156251	1301.473266601563	-1186.869262695313	-355.3364562988282	1251.128662109375	-1191.7724609375	-349.4775390625001	1213.335571289063	-1111.927978515625	-165.9452362060547	1043.4404296875	-1202.536743164063	-230.3953094482422	1018.492553710938	-1230.90185546875	-125.2348022460938	991.1397705078127	-1244.737182617188	-292.1264343261719	1547.935424804688	-737.7200317382814	-364.2162475585938	1341.328735351563	-651.6950683593751	-316.1874084472657	1328.9365234375	-642.7800903320314	-343.1919250488282	1277.039428710938	-632.0029296875001	-338.2096557617188	1232.097045898438	-625.0088500976564	-340.8358459472657	1205.597534179688	-710.3650512695314	-191.6253814697266	1007.537536621094	-635.8323974609376	-257.5195617675782	989.1430664062502	-602.6239624023439	-154.5994415283203	943.820983886719	-606.6414794921876	-218.9485015869141	1062.052612304688	-1028.847045898438	-217.4080810546876	1055.251708984375	-800.949157714844	-395.2137145996095	1130.770751953125	-912.893737792969	-410.8948669433595	1104.892333984375	-939.2620239257815	-411.514373779297	1105.119140625	-885.1066894531252	-335.6644592285157	854.219177246094	-1100.152709960938	-299.4272460937501	777.684020996094	-1102.0439453125	-251.7918243408204	781.712341308594	-1094.644409179688	-325.9026794433594	723.4564819335939	-1093.51025390625	-307.0973510742188	544.5581665039064	-1089.70947265625	-295.8606872558594	518.6137695312501	-973.233093261719	-290.6546630859376	348.3338623046876	-1046.986328125	-341.8259277343751	313.4440612792969	-1110.6279296875	-304.6771240234376	304.4331970214844	-1086.310424804688	-313.9774780273438	225.4172515869141	-1058.335693359375	-381.2409057617188	138.8043365478516	-1101.448608398438	-341.9961853027344	138.5750274658203	-1020.893676757813	-448.328094482422	120.0980377197266	-1061.792358398438	-241.5265350341797	62.93684005737306	-1039.202758789063	-235.1237182617188	57.75034713745119	-1085.050659179688	-284.3811645507813	45.58792877197266	-1137.384765625	-329.1772155761719	796.3792724609377	-725.0914306640626	-290.1265869140626	743.3364257812501	-720.5146484375001	-257.0804138183594	745.6580200195314	-724.3823242187501	-315.3600463867188	663.2929687500001	-733.7876586914064	-312.0200500488282	538.3553466796876	-730.0150146484376	-292.9568176269532	514.0552978515626	-845.9135742187502	-294.0040893554688	367.8584594726563	-731.3248901367189	-384.0140991210939	301.7415771484376	-714.6636352539064	-337.8678283691407	293.9662780761719	-714.7055664062501	-320.3486633300782	242.4089355468751	-741.5393676757814	-391.1441650390626	135.9290618896485	-725.2486572265626	-359.0607910156251	144.3984985351563	-802.3342285156252	-451.6773986816407	115.8832931518555	-775.7058715820315	-245.2743225097657	55.91987228393556	-783.4234619140627	-242.0701904296876	56.59237289428712	-730.7739868164064	-288.9269409179688	49.8881301879883	-681.6547241210939	-4217.278320312501	853.246032714844	-3944.769531250001	
1422	7.105	-189.38720703125	1790.638793945313	-885.8289794921877	-361.8056030273438	1711.097412109375	-961.7861328125002	-338.7266235351563	1708.718017578125	-810.3547363281252	-383.6691894531251	1560.561401367188	-906.5830688476565	-390.6951599121095	1241.70703125	-910.2149658203127	-221.2095184326172	1508.043212890625	-912.1591796875002	-312.4017944335938	1561.20751953125	-1081.439453125	-344.5751037597657	1369.36669921875	-1171.195434570313	-306.7045288085938	1339.46630859375	-1167.845336914063	-351.5809326171876	1301.933837890625	-1186.97705078125	-354.0565795898438	1251.552490234375	-1191.933349609375	-348.3043518066407	1213.489379882813	-1112.27587890625	-160.7360382080078	1047.584594726563	-1203.112915039063	-225.0030975341797	1021.178405761719	-1231.076171875	-119.1738967895508	996.201599121094	-1245.724731445313	-292.3182373046876	1548.052856445313	-737.2493286132814	-364.2623596191407	1341.26025390625	-651.5667724609376	-316.2802124023438	1329.080078125	-642.2625122070314	-343.0292663574219	1277.046630859375	-631.8291015625001	-337.8590698242188	1232.032592773438	-624.6475219726564	-339.6717834472657	1205.551025390625	-710.1118774414064	-186.2333679199219	1010.630432128906	-634.8994140625001	-252.0006866455079	990.6107177734377	-603.0614013671876	-147.8875732421875	948.5478515625002	-605.1912841796876	-218.7391967773438	1062.114501953125	-1028.5302734375	-217.6950988769532	1055.206909179688	-800.5835571289065	-395.3001098632814	1130.73828125	-912.713073730469	-411.0291137695314	1104.899169921875	-939.0937500000002	-411.6116027832032	1105.124267578125	-884.9028320312502	-335.6653747558594	854.1732177734377	-1099.956909179688	-299.3090820312501	777.7418212890627	-1101.866577148438	-251.7262420654297	781.7285156250002	-1094.399047851563	-325.7272338867188	723.4548339843751	-1093.272705078125	-307.0563049316407	544.5786132812501	-1089.567260742188	-295.7660522460938	518.5979614257814	-973.062194824219	-290.5969238281251	348.3238830566407	-1046.96728515625	-341.8104553222657	313.4928894042969	-1110.642822265625	-304.6556701660157	304.4512023925782	-1086.302490234375	-313.9273376464844	225.4435272216797	-1058.381591796875	-380.8913574218751	138.477783203125	-1101.5556640625	-341.9680175781251	138.6058654785157	-1020.913330078125	-448.2894897460939	120.1009979248047	-1061.804809570313	-241.5057678222657	62.9640464782715	-1039.207641601563	-235.138900756836	57.72455215454103	-1085.047973632813	-284.3020935058594	45.52356338500977	-1137.417724609375	-329.1810913085938	796.3438720703127	-724.8566284179689	-290.1365966796876	743.3069458007814	-720.3206176757814	-257.0522460937501	745.6899414062501	-724.2091064453126	-315.3167114257813	663.2926025390626	-733.6561279296876	-312.0173950195313	538.3488769531251	-729.8982543945314	-292.9845275878907	514.0706787109376	-845.830261230469	-293.9717407226563	367.8824462890626	-731.2234497070314	-384.0445251464845	301.7663879394532	-714.5455322265626	-337.9122314453126	293.9449462890626	-714.7022705078126	-320.3346862792969	242.4356842041016	-741.4757690429689	-391.1240539550782	135.9230041503907	-725.2136230468751	-359.0727844238282	144.4081573486328	-802.3371582031252	-451.683074951172	115.8350677490235	-775.6341552734377	-245.4053497314454	55.97594833374025	-783.4422607421877	-242.0606079101563	56.56484603881837	-730.7675781250001	-288.9445190429688	49.85971069335939	-681.6795654296876	-4217.119628906251	853.2469482421877	-3944.787353515626	
1423	7.11	-189.5983428955078	1790.656372070313	-885.1723632812502	-361.9332275390626	1711.19873046875	-961.1528930664065	-339.0206909179688	1708.750854492188	-809.8156738281252	-383.8472900390626	1560.469360351563	-906.219177246094	-390.8282165527345	1241.7236328125	-910.0447387695315	-221.3639831542969	1508.040283203125	-911.6441650390627	-312.4641113281251	1561.518432617188	-1080.876586914063	-344.0091857910157	1369.895629882813	-1170.987426757813	-305.9434509277344	1340.20263671875	-1167.801513671875	-350.6869506835938	1302.499755859375	-1186.988403320313	-352.9054260253907	1251.979125976563	-1192.163452148438	-347.2094116210938	1213.873657226563	-1112.601440429688	-155.9189605712891	1051.90966796875	-1203.78857421875	-219.8204650878907	1023.827331542969	-1231.170288085938	-113.6119537353516	1000.93359375	-1246.472045898438	-292.6092224121094	1548.170043945313	-736.7786254882814	-364.3207092285157	1341.172729492188	-651.2993774414064	-316.3172607421876	1329.19287109375	-641.7707519531251	-342.9346008300782	1277.059692382813	-631.6491699218751	-337.4109497070313	1231.923706054688	-624.2753906250001	-338.4573059082032	1205.4892578125	-709.8645019531251	-180.5299072265625	1014.414611816406	-634.2418823242189	-246.5209503173829	992.0861816406252	-603.3616943359376	-140.965316772461	952.9078369140627	-604.0280761718751	-218.5852661132813	1061.84326171875	-1028.321166992188	-217.8462371826172	1055.28125	-800.2847290039065	-395.4217834472657	1130.773559570313	-912.5308227539065	-411.054168701172	1104.919311523438	-938.8816528320315	-411.8479003906251	1105.0419921875	-884.7727050781252	-335.5477294921876	854.205993652344	-1099.668579101563	-299.2534484863282	777.7794189453127	-1101.68017578125	-251.6826629638672	781.7398071289065	-1094.178955078125	-325.7332153320313	723.4522094726564	-1093.154296875	-306.9685974121094	544.6021118164064	-1089.436279296875	-295.6162414550782	518.5397949218751	-972.9100341796877	-290.5003356933594	348.3524780273438	-1046.957397460938	-341.7915954589844	313.5129699707032	-1110.583251953125	-304.5293273925782	304.5122680664063	-1086.266845703125	-313.9207153320313	225.4436798095704	-1058.381958007813	-380.8639831542969	138.5144500732422	-1101.588012695313	-341.9362792968751	138.630859375	-1020.878479003906	-448.294158935547	120.1156768798828	-1061.802124023438	-241.4945526123047	62.96789169311525	-1039.175048828125	-235.1366424560547	57.7546730041504	-1085.147583007813	-284.3516540527344	45.55033874511719	-1137.388061523438	-329.2611694335938	796.3328247070315	-724.5979003906251	-290.1707153320313	743.2991943359376	-720.1547241210939	-257.0762634277344	745.7361450195314	-724.0375976562501	-315.3309631347657	663.2955932617189	-733.5489501953126	-311.9829101562501	538.3463745117189	-729.7848510742189	-292.9754943847657	514.1088256835939	-845.6782226562502	-293.9747619628907	367.8901367187501	-731.1845092773439	-384.0202941894532	301.7220764160157	-714.4808349609376	-337.8728332519532	293.9141540527344	-714.6528320312501	-320.3518981933594	242.4415283203126	-741.4592285156251	-391.152313232422	135.9114227294922	-725.2537841796876	-358.9730224609376	144.3717651367188	-802.285095214844	-451.7208251953126	115.8513259887696	-775.6741943359377	-245.3359832763672	55.9426727294922	-783.4493408203127	-242.0003662109376	56.54124450683595	-730.7916259765626	-288.9364013671876	49.88129043579103	-681.6476440429689	-4216.873535156251	853.1643676757815	-3944.739990234376	
